<?xml version="1.0" encoding="utf-8"?>
<!-- Generator: Adobe Illustrator 16.2.1, SVG Export Plug-In . SVG Version: 6.00 Build 0)  -->
<!DOCTYPE svg PUBLIC "-//W3C//DTD SVG 1.1//EN" "http://www.w3.org/Graphics/SVG/1.1/DTD/svg11.dtd">
<svg version="1.1" id="Layer_1" xmlns="http://www.w3.org/2000/svg" xmlns:xlink="http://www.w3.org/1999/xlink" x="0px" y="0px"
	 width="233.989px" height="154.492px" viewBox="0 0 233.989 154.492" enable-background="new 0 0 233.989 154.492"
	 xml:space="preserve">
<g>
	<g>
		<path d="M171.897,26.668c-5.844,0-11.35,1.392-16.265,3.807l-0.008-0.04L17.614,100.583l153.224-0.055
			c0.354,0.012,0.7,0.055,1.06,0.055c20.417,0,36.959-16.535,36.959-36.956C208.856,43.204,192.314,26.668,171.897,26.668z"/>
		<g>
			<path fill="none" stroke="#FFFFFF" stroke-width="0.6" stroke-miterlimit="10" d="M202.696,63.627
				c0,17.017-13.786,30.797-30.799,30.797c-17.011,0-30.797-13.78-30.797-30.797c0-17.019,13.786-30.8,30.797-30.8
				C188.91,32.827,202.696,46.608,202.696,63.627z"/>
			<path fill="#FFFFFF" d="M196.842,63.627c0,13.774-11.165,24.938-24.945,24.938c-13.776,0-24.943-11.163-24.943-24.938
				c0-13.784,11.167-24.96,24.943-24.96C185.677,38.667,196.842,49.843,196.842,63.627z"/>
			<g>
				<defs>
					<path id="SVGID_1_" d="M173.658,76.917h-1.56v2.953c0.602-0.305,2.005-1.551,2.005-1.551L173.658,76.917z M173.581,76.644
						l-0.638-2.029c-0.318,0.151-0.604,0.285-0.801,0.342v1.688H173.581z M170.152,76.917l-0.445,1.402c0,0,1.397,1.286,2,1.586
						v-2.941L170.152,76.917z M171.707,76.644v-1.688c-0.203-0.033-0.483-0.139-0.843-0.298l-0.639,1.985H171.707z M175.062,64.702
						l0.519-0.373h-0.643l-0.2-0.591l-0.203,0.591h-0.636l0.519,0.373l-0.201,0.602l0.521-0.354l0.521,0.354L175.062,64.702z
						 M172.221,64.702l0.519-0.373h-0.642l-0.193-0.591l-0.198,0.591h-0.639l0.516,0.373l-0.197,0.602l0.519-0.354l0.519,0.354
						L172.221,64.702z M169.39,64.702l0.514-0.373h-0.639l-0.194-0.591l-0.201,0.591h-0.646l0.522,0.373l-0.202,0.602l0.526-0.354
						l0.513,0.354L169.39,64.702z M175.976,63.659v1.759c0,0.206-0.157,0.366-0.358,0.366h-7.428c-0.202,0-0.361-0.16-0.361-0.366
						v-1.759c0-0.203,0.159-0.356,0.361-0.356h7.466C175.819,63.303,175.976,63.456,175.976,63.659z M175.618,66.169h-2.077v7.683
						c1.159-0.597,2.436-1.399,2.436-1.399v-5.918C175.976,66.34,175.819,66.169,175.618,66.169z M173.145,66.169h-2.44v7.891
						c0.519,0.281,1.002,0.47,1.24,0.428c0.242,0,0.68-0.201,1.234-0.484L173.145,66.169z M178.455,77.447l1.557-0.53h-1.436
						L178.455,77.447z M165.345,76.917h-1.514l-0.119,0.562h1.518L165.345,76.917z M180.173,76.917c0,0-1.719,0.562-1.759,0.592
						c-0.038,0-0.038-0.029-0.038-0.029l0.038-0.266h-2.121c-0.079,0.233-0.198,0.43-0.198,0.464
						c-0.038,0.125-0.161,0.125-0.199,0.093c-0.041,0-0.834-0.156-0.92-0.21c-0.075-0.052-0.117-0.081-0.117-0.113
						c0-0.04-0.08-0.211-0.121-0.286h-5.709c-0.044,0.075-0.081,0.246-0.123,0.286c0,0.032-0.036,0.113-0.123,0.113
						c-0.072,0.054-0.873,0.21-0.915,0.21c-0.039,0-0.119,0-0.2-0.093c-0.038-0.034-0.119-0.271-0.199-0.464h-2.077l-0.077,0.347
						h-1.64l0.119-0.597l-0.119-0.598h1.64l0.115,0.598h1.92c-0.081-0.169-0.121-0.271-0.121-0.271s-0.04-0.078-0.082-0.168
						c-0.039-0.075-0.039-0.158,0.042-0.19c0.08-0.058,0.762-0.362,0.762-0.362l0.92-2.393c0.521,0.316,0.521,0.316,1.282,0.707
						l-0.966,1.99c0,0,0.04,0.143,0.119,0.248c0.04,0.119-0.04,0.168-0.079,0.168c-0.04,0-0.443,0-0.443,0s-0.873,0-0.954,0
						c-0.08,0-0.08,0.035-0.08,0.068c0.038,0.088,0.08,0.156,0.08,0.156h8.19c0,0,0.038-0.122,0.076-0.156
						c0.039-0.068,0-0.068-0.076-0.068c-0.085,0-0.957,0-0.957,0s-0.402,0-0.441,0c-0.036,0-0.121,0-0.086-0.168
						c0.05-0.105,0.125-0.248,0.125-0.248l-0.96-1.99c0.76-0.391,0.76-0.391,1.276-0.707l0.92,2.393c0,0,0.637,0.305,0.756,0.362
						c0.085,0.032,0.085,0.115,0.046,0.19c-0.046,0.09-0.082,0.168-0.082,0.168s-0.038,0.103-0.113,0.271h2.031l-0.119-0.545
						c0,0,0-0.053,0.04-0.053C178.494,76.366,180.173,76.917,180.173,76.917z M172.187,58.751c-0.165,0-0.48,0-0.684,0
						c-0.2,0-0.359,0.153-0.359,0.342c0,0.219,0.159,0.38,0.359,0.38C171.665,59.509,172.022,59.021,172.187,58.751z
						 M173.298,62.973c-0.274,0-0.916,0-1.354,0c-0.441,0-1.081,0-1.359,0c0,0-0.52,0-0.397-0.559
						c0.037-0.325,0.234-1.31,0.397-2.16c-0.163,0-0.32,0-0.434,0c-0.484,0-0.722-0.149-1.081-0.065c0,0,0.396-0.287,1.081-0.287
						h0.475c0-0.073,0.038-0.156,0.038-0.229h-0.64c-0.68,0-1.357,0.432-1.357,0.432c0-0.768,0.598-1.354,1.357-1.354h0.839
						c0.204-0.309,0.522-0.309,0.522-0.309h0.519h0.434h0.085c0.159,0,0.316-0.236,0.396-0.559c0,0,0.761,4.006,0.88,4.498
						C173.821,62.973,173.298,62.973,173.298,62.973z M156.564,59.946c-0.318-0.118-2.162-0.762-2.402-0.854
						c-0.235-0.071-0.316,0.062-0.199,0.244c0.244,0.609,0.841,1.768,1.721,1.965c0.32,0.071,0.881,0.215,1.516,0.313
						c0.125,0.03,0.323,0,0.202-0.271c-0.157-0.32-0.278-0.697-0.396-0.992C156.961,60.254,156.878,60.069,156.564,59.946z
						 M155.96,56.793c-0.239-0.131-2.359-1.444-2.43-1.465c-0.085-0.054-0.246-0.054-0.246,0.105
						c0.085,0.68,0.361,2.278,1.117,2.638c0.401,0.137,1.043,0.467,1.92,0.91c0.119,0.04,0.316,0.04,0.28-0.158
						c-0.121-0.468-0.201-0.939-0.242-1.424C156.284,57.028,156.163,56.948,155.96,56.793z M157.643,62.776
						c0,0-1.878-0.362-2.043-0.362c-0.155-0.032-0.272,0.05-0.202,0.209c0.285,0.591,1.003,1.904,1.642,1.886
						c0.284,0,0.882,0,1.56,0c0.08,0,0.201-0.083,0.124-0.236c-0.197-0.32-0.358-0.682-0.521-1.002
						C157.965,62.863,157.643,62.776,157.643,62.776z M161.277,66.887c0,0-0.686,0.216-0.799,0.246
						c-0.117,0.036-0.117,0.12-0.04,0.211c0.318,0.236,1.079,0.68,1.759,0.425c0.076-0.027,0.12-0.105,0.036-0.188
						c-0.238-0.206-0.559-0.478-0.632-0.564C161.476,66.862,161.277,66.887,161.277,66.887z M156.003,53.675
						c0-0.562-0.441-0.839-0.441-0.839l-1.795-1.487c-0.2-0.143-0.397-0.33-0.521-0.439c-0.196-0.154-0.321-0.115-0.321,0.092
						c-0.038,0.835,0,2.883,0.842,3.438c0.32,0.194,0.956,0.707,1.916,1.317c0.277,0.165,0.479,0,0.479-0.163
						c0-0.127-0.042-0.265-0.042-0.39L156.003,53.675z M163.396,68.259c-0.042,0.035-0.324,0.15-0.358,0.2
						c-0.043,0-0.123,0.073,0,0.147c0.358,0.174,1.111,0.471,1.47,0.332c0.045-0.057,0.045-0.102-0.034-0.13
						c-0.28-0.163-0.562-0.35-0.839-0.55C163.551,68.21,163.475,68.21,163.396,68.259z M159.482,65.343c0,0-1.204,0.121-1.361,0.154
						c-0.155,0.046-0.155,0.127,0,0.287c0.405,0.361,1.161,0.959,2.037,0.75c0.123-0.035,0.203-0.035,0.32-0.079
						c0.081,0,0.316-0.083,0.113-0.31c-0.193-0.24-0.388-0.457-0.634-0.682C159.76,65.304,159.482,65.343,159.482,65.343z
						 M167.468,66.372c0,0,0-0.094-0.119-0.094c-1.198-0.109-3.59-1.377-0.722-4.905c0.118-0.112,0.084-0.237,0-0.349
						c-1.634-1.246-8.384-6.428-9.906-7.588c-0.196-0.184-0.32-0.117-0.32,0.075c0,0.765,0.08,2.653,0.843,3.126
						c0.919,0.589,6.189,3.867,6.83,4.258c0.159,0.129-0.042,0.276-0.08,0.24c-0.083,0-5.716-3.252-7.032-4.035
						c-0.157-0.072-0.24-0.029-0.24,0.126c0.083,0.657,0.401,2.039,1.083,2.329c0.875,0.346,5.31,2.334,5.955,2.626
						c0.151,0.087,0,0.282-0.085,0.232c-0.082-0.032-5.035-1.991-6.152-2.431c-0.161-0.037-0.198,0-0.161,0.161
						c0.199,0.503,0.722,1.712,1.561,1.91c0.998,0.246,4.234,1.046,4.791,1.159c0.162,0.057,0.081,0.242-0.038,0.242
						c-0.082,0-3.999-0.557-4.995-0.68c-0.119,0-0.199,0.051-0.119,0.164c0.24,0.447,0.96,1.689,1.559,1.637
						c0.638-0.05,3.037-0.104,3.556-0.151c0.157,0,0.157,0.204,0.038,0.249c-0.12,0-2.714,0.298-3.432,0.396
						c-0.123,0-0.123,0.074-0.043,0.184c0.321,0.334,1.119,1.023,1.995,0.807c0.923-0.192,1.916-0.401,2.24-0.473
						c0.161-0.046,0.242,0.143,0.119,0.195c-0.119,0.041-2.156,0.556-2.795,0.715c-0.123,0.035-0.123,0.121,0,0.193
						c0.36,0.273,1.24,0.888,2.077,0.561c0.841-0.309,1.355-0.561,1.517-0.633c0.12-0.041,0.239,0.123,0.161,0.153
						c-0.081,0.046-1.359,0.722-1.84,0.968c-0.12,0.088-0.12,0.107,0,0.193c0.437,0.213,1.518,0.632,1.995,0.443
						c0.644-0.283,0.92,0.113,0.962,0.357c0.042,0.286,0.24,0,0.24,0l0.559-0.641V66.372z M186.804,60.371
						c-0.123,0.33-0.242,0.702-0.399,1.002c-0.125,0.242,0.076,0.272,0.203,0.272c0.636-0.111,1.192-0.225,1.515-0.301
						c0.877-0.209,1.479-1.361,1.719-1.955c0.076-0.234,0-0.316-0.2-0.234c-0.238,0.074-2.081,0.701-2.397,0.828
						C186.921,60.069,186.842,60.254,186.804,60.371z M187.443,57.399c-0.08,0.416-0.163,0.956-0.24,1.424
						c-0.038,0.198,0.16,0.198,0.279,0.158c0.879-0.443,1.518-0.709,1.921-0.91c0.757-0.359,1.039-1.958,1.115-2.638
						c0.043-0.159-0.118-0.21-0.239-0.105c-0.077,0.021-2.2,1.334-2.44,1.465C187.641,56.948,187.526,57.028,187.443,57.399z
						 M185.6,63.303c-0.157,0.324-0.318,0.68-0.519,1.004c-0.072,0.167,0.043,0.221,0.123,0.221c0.684,0,1.276,0,1.564,0
						c0.634,0,1.354-1.313,1.632-1.872c0.081-0.153,0-0.241-0.197-0.191c-0.163,0.038-2.041,0.363-2.041,0.363
						S185.842,62.863,185.6,63.303z M182.253,66.966c-0.12,0.082-0.439,0.408-0.643,0.57c-0.084,0.078-0.036,0.205,0.04,0.205
						c0.676,0.282,1.44-0.161,1.753-0.451c0.123-0.069,0.084-0.157-0.034-0.188c-0.117-0.055-0.801-0.24-0.801-0.24
						S182.327,66.862,182.253,66.966z M187.683,55.224c0,0.125,0,0.289-0.042,0.414c0,0.156,0.197,0.307,0.481,0.156
						c0.92-0.591,1.6-1.082,1.922-1.332c0.837-0.562,0.837-2.626,0.837-3.443c0-0.188-0.125-0.264-0.32-0.051
						c-0.119,0.104-0.323,0.238-0.517,0.429l-1.799,1.476c0,0-0.407,0.291-0.445,0.832L187.683,55.224z M180.173,68.259
						c-0.277,0.2-0.559,0.348-0.876,0.55c-0.082,0.028-0.082,0.073-0.042,0.13c0.359,0.139,1.153-0.158,1.479-0.332
						c0.155-0.074,0.038-0.147,0-0.147c-0.041,0-0.325-0.165-0.361-0.2C180.333,68.21,180.257,68.21,180.173,68.259z
						 M183.845,65.497c-0.197,0.234-0.441,0.438-0.639,0.672c-0.194,0.203,0.046,0.286,0.12,0.33c0.121,0.035,0.2,0.035,0.321,0.08
						c0.837,0.194,1.634-0.41,2.038-0.754c0.156-0.165,0.156-0.236,0-0.282c-0.159-0.046-1.356-0.147-1.356-0.147
						S184.049,65.304,183.845,65.497z M176.339,68.21l0.555,0.627c0,0,0.203,0.308,0.244,0c0.034-0.271,0.316-0.627,0.956-0.346
						c0.481,0.206,1.561-0.232,1.996-0.443c0.125-0.024,0.125-0.113,0-0.199c-0.476-0.234-1.714-0.904-1.835-0.962
						c-0.083-0.067,0.038-0.229,0.159-0.144c0.201,0.076,0.682,0.305,1.519,0.631c0.839,0.317,1.718-0.271,2.077-0.555
						c0.123-0.076,0.123-0.161,0-0.199c-0.64-0.165-2.713-0.686-2.795-0.715c-0.081-0.036-0.041-0.245,0.12-0.217
						c0.279,0.043,1.319,0.291,2.239,0.48c0.873,0.203,1.678-0.48,1.996-0.773c0.119-0.141,0.077-0.194-0.044-0.2
						c-0.718-0.102-3.312-0.43-3.437-0.43c-0.119,0-0.119-0.238,0.042-0.238c0.522,0,2.918,0.147,3.558,0.175
						c0.557,0.031,1.274-1.188,1.555-1.642c0.037-0.12,0-0.161-0.12-0.161c-0.955,0.125-4.909,0.691-4.992,0.691
						c-0.121,0-0.199-0.203-0.042-0.256c0.564-0.121,3.798-0.921,4.794-1.153c0.839-0.21,1.363-1.401,1.561-1.928
						c0.036-0.149,0-0.237-0.165-0.149c-1.113,0.434-6.106,2.397-6.147,2.432c-0.121,0.039-0.236-0.154-0.076-0.235
						c0.637-0.269,5.068-2.317,5.953-2.628c0.672-0.283,0.998-1.715,1.074-2.331c0.039-0.138-0.044-0.241-0.241-0.115
						c-1.315,0.657-6.946,3.909-7.03,3.945c-0.081,0.05-0.238-0.099-0.081-0.232c0.642-0.401,5.955-3.713,6.831-4.277
						c0.76-0.47,0.841-2.335,0.841-3.101c0-0.215-0.123-0.242-0.319-0.104c-1.52,1.175-8.268,6.37-9.911,7.615
						c-0.115,0.062-0.115,0.229,0,0.348c2.884,3.529,0.481,4.857-0.72,4.873c-0.113,0-0.113,0.119-0.113,0.119V68.21z
						 M170.265,73.852c-1.16-0.654-2.437-1.441-2.437-1.441v-5.157v-0.674c0-0.207,0.159-0.368,0.361-0.368h2.075V73.852z"/>
				</defs>
				<use xlink:href="#SVGID_1_"  overflow="visible"/>
				<clipPath id="SVGID_2_">
					<use xlink:href="#SVGID_1_"  overflow="visible"/>
				</clipPath>
				<rect x="150.916" y="48.819" clip-path="url(#SVGID_2_)" width="41.957" height="33.098"/>
			</g>
		</g>
	</g>
	<g>
		<path d="M26.001,117.159h-4.104l-0.57,1.931h-3.69l4.396-11.695h3.943l4.395,11.695h-3.785L26.001,117.159z M25.25,114.631
			l-1.29-4.205l-1.278,4.205H25.25z"/>
		<path d="M37.415,114.854v-2.433H43v4.986c-1.069,0.729-2.015,1.224-2.836,1.487c-0.822,0.263-1.797,0.396-2.924,0.396
			c-1.388,0-2.521-0.236-3.395-0.711c-0.875-0.473-1.554-1.178-2.034-2.114c-0.482-0.936-0.723-2.011-0.723-3.223
			c0-1.277,0.264-2.387,0.79-3.332c0.527-0.943,1.298-1.66,2.313-2.149c0.793-0.377,1.858-0.566,3.199-0.566
			c1.292,0,2.259,0.116,2.9,0.351s1.173,0.598,1.596,1.09c0.423,0.491,0.74,1.115,0.954,1.871l-3.487,0.622
			c-0.144-0.441-0.386-0.779-0.729-1.014s-0.781-0.352-1.312-0.352c-0.793,0-1.425,0.275-1.896,0.826
			c-0.47,0.551-0.707,1.422-0.707,2.613c0,1.267,0.238,2.17,0.715,2.713c0.476,0.542,1.139,0.813,1.989,0.813
			c0.405,0,0.79-0.058,1.157-0.176c0.368-0.117,0.787-0.316,1.26-0.599v-1.101H37.415z"/>
		<path d="M45.449,107.395h9.686v2.497h-6.063v1.858h5.625v2.386h-5.625v2.306h6.238v2.648h-9.861V107.395z"/>
		<path d="M57.591,107.395h3.375l4.404,6.471v-6.471h3.407v11.695H65.37l-4.38-6.422v6.422h-3.399V107.395z"/>
		<path d="M79.276,114.303l3.167,0.958c-0.212,0.888-0.548,1.631-1.005,2.226c-0.457,0.596-1.025,1.045-1.703,1.349
			c-0.679,0.303-1.541,0.455-2.589,0.455c-1.272,0-2.311-0.186-3.116-0.555c-0.805-0.37-1.501-1.019-2.086-1.949
			c-0.584-0.931-0.877-2.121-0.877-3.572c0-1.934,0.514-3.422,1.543-4.461c1.029-1.039,2.485-1.559,4.369-1.559
			c1.473,0,2.631,0.298,3.475,0.893c0.843,0.597,1.468,1.512,1.878,2.745l-3.192,0.71c-0.111-0.355-0.228-0.616-0.351-0.781
			c-0.202-0.277-0.45-0.49-0.742-0.638c-0.292-0.15-0.619-0.224-0.981-0.224c-0.819,0-1.446,0.329-1.882,0.987
			c-0.33,0.489-0.495,1.257-0.495,2.304c0,1.296,0.196,2.185,0.591,2.665c0.394,0.481,0.946,0.722,1.659,0.722
			c0.692,0,1.214-0.194,1.568-0.583C78.86,115.606,79.116,115.043,79.276,114.303z"/>
		<path d="M83.327,107.395h4.015l2.357,3.944l2.361-3.944h3.993l-4.547,6.797v4.898h-3.623v-4.898L83.327,107.395z"/>
		<path d="M102.657,115.22l3.439-0.214c0.074,0.558,0.226,0.984,0.455,1.275c0.372,0.475,0.904,0.71,1.596,0.71
			c0.516,0,0.914-0.121,1.192-0.362c0.28-0.241,0.419-0.522,0.419-0.842c0-0.303-0.133-0.574-0.4-0.813
			c-0.265-0.24-0.882-0.466-1.85-0.678c-1.585-0.357-2.716-0.831-3.392-1.422c-0.681-0.589-1.021-1.342-1.021-2.257
			c0-0.601,0.174-1.169,0.522-1.704c0.349-0.534,0.872-0.955,1.573-1.261c0.699-0.305,1.658-0.458,2.875-0.458
			c1.496,0,2.635,0.277,3.42,0.834c0.784,0.556,1.25,1.439,1.399,2.652l-3.407,0.199c-0.091-0.526-0.28-0.909-0.57-1.148
			c-0.29-0.239-0.69-0.359-1.201-0.359c-0.419,0-0.737,0.089-0.949,0.268c-0.212,0.178-0.319,0.396-0.319,0.649
			c0,0.188,0.088,0.354,0.263,0.504c0.171,0.154,0.575,0.298,1.213,0.431c1.58,0.341,2.711,0.685,3.395,1.032
			c0.684,0.35,1.182,0.78,1.493,1.297s0.466,1.093,0.466,1.731c0,0.749-0.208,1.441-0.623,2.075
			c-0.415,0.633-0.995,1.112-1.739,1.439c-0.745,0.327-1.684,0.491-2.817,0.491c-1.988,0-3.366-0.384-4.132-1.15
			C103.192,117.374,102.758,116.402,102.657,115.22z"/>
		<path d="M115.383,107.395h6.008c1.308,0,2.288,0.31,2.939,0.932c0.651,0.623,0.978,1.51,0.978,2.658
			c0,1.18-0.354,2.104-1.064,2.769c-0.711,0.664-1.794,0.996-3.252,0.996h-1.979v4.341h-3.63V107.395z M119.013,112.381h0.886
			c0.697,0,1.187-0.122,1.468-0.364c0.282-0.241,0.423-0.552,0.423-0.928c0-0.369-0.123-0.679-0.367-0.935
			c-0.245-0.255-0.704-0.384-1.38-0.384h-1.029V112.381z"/>
		<path d="M127.054,113.25c0-1.91,0.532-3.396,1.596-4.46c1.064-1.063,2.545-1.596,4.444-1.596c1.946,0,3.446,0.522,4.5,1.567
			c1.053,1.046,1.579,2.51,1.579,4.393c0,1.366-0.229,2.488-0.689,3.362c-0.461,0.876-1.125,1.557-1.995,2.043
			s-1.953,0.73-3.251,0.73c-1.319,0-2.411-0.211-3.275-0.631c-0.864-0.419-1.564-1.085-2.103-1.995
			C127.323,115.755,127.054,114.616,127.054,113.25z M130.668,113.266c0,1.181,0.22,2.029,0.659,2.545
			c0.438,0.517,1.035,0.774,1.791,0.774c0.775,0,1.376-0.253,1.802-0.758s0.639-1.413,0.639-2.721c0-1.102-0.223-1.905-0.666-2.413
			c-0.444-0.508-1.047-0.762-1.808-0.762c-0.729,0-1.312,0.258-1.755,0.773C130.889,111.221,130.668,112.075,130.668,113.266z"/>
		<path d="M140.186,107.395h10.986v2.888h-3.686v8.808h-3.614v-8.808h-3.687V107.395z"/>
		<path d="M153.119,107.395h3.614v8.816h5.64v2.879h-9.254V107.395z"/>
		<path d="M164.471,107.395h3.622v11.695h-3.622V107.395z"/>
		<path d="M176.876,114.854v-2.433h5.585v4.986c-1.068,0.729-2.015,1.224-2.836,1.487c-0.821,0.263-1.797,0.396-2.924,0.396
			c-1.389,0-2.521-0.236-3.395-0.711c-0.875-0.473-1.554-1.178-2.034-2.114c-0.482-0.936-0.723-2.011-0.723-3.223
			c0-1.277,0.264-2.387,0.79-3.332c0.526-0.943,1.298-1.66,2.313-2.149c0.793-0.377,1.858-0.566,3.199-0.566
			c1.292,0,2.259,0.116,2.899,0.351c0.642,0.234,1.173,0.598,1.597,1.09c0.423,0.491,0.74,1.115,0.953,1.871l-3.487,0.622
			c-0.144-0.441-0.386-0.779-0.729-1.014c-0.343-0.234-0.78-0.352-1.312-0.352c-0.793,0-1.424,0.275-1.895,0.826
			s-0.707,1.422-0.707,2.613c0,1.267,0.238,2.17,0.715,2.713c0.477,0.542,1.14,0.813,1.99,0.813c0.404,0,0.79-0.058,1.157-0.176
			c0.367-0.117,0.787-0.316,1.26-0.599v-1.101H176.876z"/>
		<path d="M184.934,107.395h3.614v4.092h3.949v-4.092h3.631v11.695h-3.631v-4.731h-3.949v4.731h-3.614V107.395z"/>
		<path d="M198.017,107.395h10.986v2.888h-3.686v8.808h-3.614v-8.808h-3.687V107.395z"/>
	</g>
</g>
</svg>
