<svg id="Layer_1" data-name="Layer 1" xmlns="http://www.w3.org/2000/svg" xmlns:xlink="http://www.w3.org/1999/xlink" viewBox="0 0 288 153.94"><defs><style>.cls-1{fill:none;}.cls-1,.cls-12,.cls-13,.cls-3{stroke:#000;stroke-miterlimit:10;}.cls-2,.cls-3{fill:#fff;}.cls-4{font-size:20.76px;font-family:Arial-Black, Arial Black;font-weight:800;}.cls-5{letter-spacing:-0.01em;}.cls-6{letter-spacing:0.02em;}.cls-7{letter-spacing:-0.01em;}.cls-8{letter-spacing:-0.01em;}.cls-9{letter-spacing:-0.01em;}.cls-10{fill:#999;}.cls-11{clip-path:url(#clip-path);}.cls-12{fill:#c1272d;}.cls-13{fill:#2e318a;}</style><clipPath id="clip-path"><path class="cls-1" d="M234.06,67.25C233.64,70.77,220.31,78,220.31,78s-13.4-7.24-13.83-10.82c0,0,0-13.17,0-14.34,0-2.39-2-5.26-2.93-6.16-.11-.11,0-.21.06-.21l33.55-.2a.09.09,0,0,1,.08.15c-.54.68-3,4.11-3,6.52C234.22,53.77,234.06,67.25,234.06,67.25Z"/></clipPath></defs><title>Artboard 1</title><path d="M220,14a47.16,47.16,0,0,0-20.87,4.89v0L22,108.87l196.63-.07c.46,0,.9.07,1.36.07A47.43,47.43,0,1,0,220,14Z"/><path class="cls-2" d="M259.52,61.44A39.53,39.53,0,1,1,220,21.92,39.52,39.52,0,0,1,259.52,61.44Z"/><path class="cls-3" d="M252,61.46a32,32,0,1,1-32-32A32,32,0,0,1,252,61.46Z"/><text class="cls-4" transform="translate(22 132.61)"><tspan class="cls-5">A</tspan><tspan class="cls-6" x="15.94" y="0">GE</tspan><tspan x="49.01" y="0">N</tspan><tspan class="cls-7" x="66.31" y="0">C</tspan><tspan class="cls-6" x="82.17" y="0">Y S</tspan><tspan class="cls-8" x="121.41" y="0">P</tspan><tspan class="cls-9" x="136.2" y="0">O</tspan><tspan class="cls-6" x="153.35" y="0">TLIGHT</tspan></text><line class="cls-10" x1="202.47" y1="57.92" x2="203.13" y2="62.07"/><path class="cls-10" d="M247.28,61.81Z"/><path class="cls-10" d="M247.28,61.81A6.16,6.16,0,0,0,243,60.34a9,9,0,0,0-2.14.27,7.54,7.54,0,0,0-3.71,2.88.42.42,0,0,0,0-.12,18.26,18.26,0,0,0,.68-3.35,6.64,6.64,0,0,0,5.44-5.77,8.24,8.24,0,0,1,1.92-5,.19.19,0,0,0,.05-.19.17.17,0,0,0-.13-.13,4.07,4.07,0,0,0-.43,0c-.88,0-3.18.28-5.5,2.93a7.31,7.31,0,0,0-1.54,3.19,25.64,25.64,0,0,0-.41,2.65c-.11.81,0,1.58-.11,2.4-.09-1.81-.46-4.25-1.71-5.68-2.32-2.64-4.62-2.93-5.5-2.93a2.89,2.89,0,0,0-.43,0,.17.17,0,0,0-.13.13.22.22,0,0,0,.05.19s1.55,1.49,1.93,5a6.28,6.28,0,0,0,2.8,4.63h-1.78A6.83,6.83,0,0,0,228.69,58a.15.15,0,0,0-.17.06.23.23,0,0,0,0,.2,8.64,8.64,0,0,1,.05,5.38,7.13,7.13,0,0,0,2.62,7.32c-.85.66-1.67,1.21-2.27,1.59s-1.22.75-1.81,1.11a4.92,4.92,0,0,0,.79-1.73c.69-3.45-.77-5.24-.83-5.31a.18.18,0,0,0-.18-.06.22.22,0,0,0-.11.16,6,6,0,0,1-2,3.35,5.45,5.45,0,0,0-1.19,5.68c-.27.16-.53.32-.78.49a23.8,23.8,0,0,0-2.39,1.73l-.1.08-.1-.08a26.36,26.36,0,0,0-2.39-1.73c-.25-.17-.51-.33-.79-.49A5.45,5.45,0,0,0,215.84,70a6.12,6.12,0,0,1-2-3.35.19.19,0,0,0-.11-.16.16.16,0,0,0-.17.06c-.06.07-1.52,1.86-.83,5.31a4.72,4.72,0,0,0,.78,1.73c-.59-.36-1.19-.72-1.8-1.11a27.64,27.64,0,0,1-2.28-1.59,7.11,7.11,0,0,0,2.63-7.32,8.64,8.64,0,0,1,.05-5.38.2.2,0,0,0,0-.2.14.14,0,0,0-.17-.06,6.8,6.8,0,0,0-3.71,3.5h-1.78a6.28,6.28,0,0,0,2.8-4.63,8.27,8.27,0,0,1,1.92-5,.22.22,0,0,0,.06-.19.18.18,0,0,0-.14-.13,2.43,2.43,0,0,0-.43,0c-.88,0-3.18.29-5.5,2.93-1.25,1.43-1.61,3.87-1.7,5.68-.05-.37-.1-.75-.12-1.12l-.5-3.72a7.31,7.31,0,0,0-1.44-3.4c-2.32-2.65-4.63-2.93-5.51-2.93a3.53,3.53,0,0,0-.42,0,.15.15,0,0,0-.13.13.21.21,0,0,0,0,.19s1.55,1.47,1.93,5A6.63,6.63,0,0,0,202.72,60a17.49,17.49,0,0,0,.69,3.35c0,.05,0,.08,0,.12a7.54,7.54,0,0,0-3.71-2.88,9,9,0,0,0-2.15-.27,6.15,6.15,0,0,0-4.25,1.47.19.19,0,0,0-.05.19.17.17,0,0,0,.14.12s2,.29,4.11,2.95A5.41,5.41,0,0,0,202,67.23a7.68,7.68,0,0,0,2.79-.57c.14.28.29.55.44.83l.57,1c.21.3.4.6.65.91.07.09.14.16.2.25a7.06,7.06,0,0,0-3.06-.84,3.48,3.48,0,0,0-.73.07c-4.19.82-5.45,3.67-5.5,3.8a.17.17,0,0,0,0,.19.18.18,0,0,0,.17.06s1.94-.61,4.82,1a5.08,5.08,0,0,0,2.51.67,6.74,6.74,0,0,0,4.68-2.2c.49.38,1,.76,1.64,1.17s1.36.9,2,1.31a7.52,7.52,0,0,0-1.7-.2,4.57,4.57,0,0,0-1.81.34,7.72,7.72,0,0,0-4.72,4.9.21.21,0,0,0,.06.18.17.17,0,0,0,.18,0,5.24,5.24,0,0,1,2.34-.47,8.84,8.84,0,0,1,2.57.42,5.41,5.41,0,0,0,1.52.24,6.51,6.51,0,0,0,5.16-3.15l.39.26A24,24,0,0,1,219.28,79c-.2.2-.39.4-.56.6a8.86,8.86,0,0,0-1.21,1.78.87.87,0,0,0-.09.59.78.78,0,0,0,.33.49.67.67,0,0,0,.37.11.72.72,0,0,0,.61-.37l.25-.49a7.58,7.58,0,0,1,.76-1.09c.17-.21.36-.43.57-.65.21.22.4.44.57.65a6.8,6.8,0,0,1,.75,1.09l.26.49a.7.7,0,0,0,.61.37.7.7,0,0,0,.37-.11.76.76,0,0,0,.32-.49.81.81,0,0,0-.08-.59l-.28-.5a9.1,9.1,0,0,0-.93-1.28c-.17-.2-.36-.4-.56-.6a24,24,0,0,1,2.11-1.59l.38-.26A6.53,6.53,0,0,0,229,80.26a5.42,5.42,0,0,0,1.53-.24,8.84,8.84,0,0,1,2.57-.42,5.24,5.24,0,0,1,2.34.47.17.17,0,0,0,.18,0,.18.18,0,0,0,0-.18c0-.13-.75-3.2-4.71-4.9a4.64,4.64,0,0,0-1.81-.34,7.61,7.61,0,0,0-1.71.2c.66-.41,1.34-.85,2-1.31s1.15-.79,1.64-1.17a6.72,6.72,0,0,0,4.68,2.2,5,5,0,0,0,2.5-.67c2.89-1.6,4.82-1,4.83-1a.18.18,0,0,0,.17-.06.19.19,0,0,0,0-.19c-.05-.13-1.31-3-5.49-3.8a3.51,3.51,0,0,0-.74-.07,7.14,7.14,0,0,0-3.06.84l.21-.25c.25-.31.44-.61.65-.91l.57-1c.15-.28.3-.55.43-.83a7.78,7.78,0,0,0,2.8.57,5.43,5.43,0,0,0,4.41-2.16c2.07-2.66,4.08-2.95,4.11-2.95a.21.21,0,0,0,.14-.12A.19.19,0,0,0,247.28,61.81ZM207.1,68.69l.25-1.65a17.61,17.61,0,0,0,.75,2.73A12.79,12.79,0,0,1,207.1,68.69Zm27-.82a9.2,9.2,0,0,1-.61.82c-.32.38-.66.74-1,1.08a18.16,18.16,0,0,0,.66-2.22l.17,1.14,1.21-1.47Z"/><g class="cls-11"><rect class="cls-3" x="205" y="56.72" width="29.74" height="23.13"/><rect class="cls-12" x="218.1" y="56.73" width="4.41" height="23.13"/><rect class="cls-12" x="226.28" y="56.64" width="4.41" height="23.13"/><rect class="cls-12" x="209.79" y="56.72" width="4.41" height="23.13"/><rect class="cls-13" x="198.89" y="45.71" width="38.56" height="11.02"/></g><path class="cls-1" d="M234.06,67.25C233.64,70.77,220.31,78,220.31,78s-13.4-7.24-13.83-10.82c0,0,0-13.17,0-14.34,0-2.39-2-5.26-2.93-6.16-.11-.11,0-.21.06-.21l33.55-.2a.09.09,0,0,1,.08.15c-.54.68-3,4.11-3,6.52C234.22,53.77,234.06,67.25,234.06,67.25Z"/><polygon class="cls-2" points="215.25 50.69 213.69 52.21 214.06 54.37 212.12 53.35 210.19 54.38 210.55 52.22 208.98 50.69 211.15 50.38 212.12 48.41 213.09 50.37 215.25 50.69"/><polygon class="cls-2" points="223.44 50.69 221.88 52.22 222.25 54.37 220.31 53.36 218.38 54.38 218.74 52.22 217.17 50.69 219.34 50.38 220.31 48.41 221.28 50.38 223.44 50.69"/><polygon class="cls-2" points="231.62 50.69 230.06 52.22 230.44 54.37 228.5 53.36 226.56 54.38 226.92 52.22 225.35 50.7 227.52 50.38 228.49 48.41 229.46 50.38 231.62 50.69"/></svg>