<?xml version="1.0" encoding="UTF-8"?>
<svg width="20px" height="20px" viewBox="0 0 20 20" version="1.1" xmlns="http://www.w3.org/2000/svg" xmlns:xlink="http://www.w3.org/1999/xlink">
    <!-- Generator: Sketch 59 (86127) - https://sketch.com -->
    <title>magnifying-glass</title>
    <desc>Created with Sketch.</desc>
    <g id="Page-1" stroke="none" stroke-width="1" fill="none" fill-rule="evenodd">
        <g id="Desktop-Copy-8" transform="translate(-933.000000, -863.000000)" fill="#7E7F7C" fill-rule="nonzero">
            <g id="magnifying-glass" transform="translate(933.000000, 863.000000)">
                <path d="M13.3562629,2.28823228 C10.3050847,-0.762744093 5.33906573,-0.762744093 2.28788756,2.28823228 C-0.762629186,5.33987004 -0.762629186,10.3048992 2.28788756,13.356537 C5.00504341,16.0728517 9.23687474,16.3638618 12.2860686,14.242795 C12.3502274,14.5463715 12.4970649,14.8360588 12.7331955,15.0721738 L17.1766846,19.515369 C17.8242249,20.1615437 18.8706077,20.1615437 19.5148408,19.515369 C20.1617197,18.8685329 20.1617197,17.8222193 19.5148408,17.1773674 L15.0713518,12.7328494 C14.836544,12.4987186 14.5461761,12.3512294 14.2425796,12.2870749 C16.3651095,9.23742125 16.0740802,5.00653119 13.3562629,2.28823228 Z M12.2444992,12.2445738 C9.90383145,14.5851421 6.09446946,14.5851421 3.75448135,12.2445738 C1.41517288,9.90400544 1.41517288,6.09548486 3.75448135,3.75491654 C6.09446946,1.41502782 9.90383145,1.41502782 12.2444992,3.75491654 C14.5851669,6.09548486 14.5851669,9.90400544 12.2444992,12.2445738 Z" id="Shape"></path>
            </g>
        </g>
    </g>
</svg>